<svg xmlns="http://www.w3.org/2000/svg" xmlns:xlink="http://www.w3.org/1999/xlink" viewBox="0 0 38.4 23.8">
  <defs>
    <style>
      .cls-1 {
        clip-path: url(#clip-path);
      }

      .cls-2 {
        clip-path: url(#clip-path-2);
      }

      .cls-3 {
        clip-path: url(#clip-path-3);
      }

      .cls-4 {
        clip-path: url(#clip-path-4);
      }

      .cls-5 {
        clip-path: url(#clip-path-5);
      }

      .cls-6 {
        fill: #643f90;
      }

      .cls-7 {
        clip-path: url(#clip-path-6);
      }

      .cls-8 {
        clip-path: url(#clip-path-7);
      }
    </style>
    <clipPath id="clip-path">
      <rect id="Rectangle_225" data-name="Rectangle 225" width="24" height="23.8" transform="translate(235 749.9)"/>
    </clipPath>
    <clipPath id="clip-path-2">
      <rect id="Rectangle_224" data-name="Rectangle 224" width="1920" height="1080"/>
    </clipPath>
    <clipPath id="clip-path-3">
      <rect id="Rectangle_223" data-name="Rectangle 223" width="25" height="25" transform="translate(235 749)"/>
    </clipPath>
    <clipPath id="clip-path-4">
      <path id="Path_771" data-name="Path 771" d="M247.2,759.5v4.7h6.6c-1,3.1-2.6,4.7-6.6,4.7a7.1,7.1,0,1,1,0-14.2,6.878,6.878,0,0,1,4.7,1.7c1-1,.9-1.1,3.5-3.5a12.415,12.415,0,0,0-8.2-3.1,11.9,11.9,0,1,0,0,23.8c10.1,0,12.5-8.6,11.7-14.3H247.2Z"/>
    </clipPath>
    <clipPath id="clip-path-5">
      <rect id="Rectangle_222" data-name="Rectangle 222" width="25" height="25" transform="translate(5 4.1)"/>
    </clipPath>
    <clipPath id="clip-path-6">
      <path id="Path_772" data-name="Path 772" d="M269.2,758.7v-4.1h-3.1v4.1h-4.3v3h4.3v4.2h3.1v-4.2h4.2v-3Z"/>
    </clipPath>
    <clipPath id="clip-path-7">
      <rect id="Rectangle_227" data-name="Rectangle 227" width="1920" height="1080" transform="translate(-256.8 -749.6)"/>
    </clipPath>
  </defs>
  <g id="Group_3225" data-name="Group 3225" transform="translate(-235 -749.9)">
    <g id="Group_746" data-name="Group 746">
      <g id="Group_745" data-name="Group 745" class="cls-1">
        <g id="Group_744" data-name="Group 744" class="cls-2">
          <g id="Group_743" data-name="Group 743">
            <g id="Group_742" data-name="Group 742" class="cls-3">
              <g id="Group_741" data-name="Group 741" class="cls-4">
                <g id="Group_740" data-name="Group 740" class="cls-5" transform="translate(230 744.9)">
                  <rect id="Rectangle_221" data-name="Rectangle 221" class="cls-6" width="34" height="33.8"/>
                </g>
              </g>
            </g>
          </g>
        </g>
      </g>
    </g>
    <g id="Group_749" data-name="Group 749">
      <g id="Group_748" data-name="Group 748" class="cls-7">
        <g id="Group_747" data-name="Group 747" class="cls-8" transform="translate(256.8 749.6)">
          <rect id="Rectangle_226" data-name="Rectangle 226" class="cls-6" width="21.6" height="21.3"/>
        </g>
      </g>
    </g>
  </g>
</svg>
