<?xml version="1.0" encoding="utf-8"?>
<!-- Generator: Adobe Illustrator 22.0.1, SVG Export Plug-In . SVG Version: 6.00 Build 0)  -->
<svg version="1.1" id="Layer_2" xmlns="http://www.w3.org/2000/svg" xmlns:xlink="http://www.w3.org/1999/xlink" x="0px" y="0px"
	 viewBox="0 0 29.5 29.4" style="enable-background:new 0 0 29.5 29.4;" xml:space="preserve">
<style type="text/css">
	.st0{fill:#FFFFFF;}
</style>
<g>
	<g id="Group_3353_1_" transform="translate(-0.11 0.3)">
		<g id="VrkZz8_1_" transform="translate(0.11 -0.3)">
			<g id="Group_3343_1_" transform="translate(0)">
				<path id="Path_7731_1_" class="st0" d="M17.2,29.4c-0.4,0-0.9,0-1.3,0c-0.2,0-0.4,0-0.6,0c-0.1,0-0.2,0-0.3,0
					c-0.1,0-0.2,0-0.3,0c-0.1,0-0.1,0-0.2,0c-0.1,0-0.1,0-0.2,0c0,0,0,0,0,0c-0.2,0-0.4,0-0.5,0s-0.4,0-0.5,0h-0.3
					c-0.2,0-0.4,0-0.6,0c-0.1,0-0.2,0-0.3,0c0,0-0.1,0-0.1,0c0,0-0.1,0-0.1,0c0,0-0.1,0-0.2,0c-0.1,0-0.3,0-0.4-0.1
					c-0.1,0-0.3,0-0.4-0.1c-0.1,0-0.3-0.1-0.4-0.1c-0.2,0-0.5-0.1-0.7-0.2c-0.1,0-0.2-0.1-0.4-0.1c-0.1-0.1-0.3-0.1-0.4-0.2
					c-0.1,0-0.2-0.1-0.3-0.1c-0.3-0.1-0.5-0.2-0.7-0.4c-0.2-0.1-0.4-0.2-0.6-0.4c-0.1-0.1-0.3-0.2-0.4-0.2c-0.1-0.1-0.2-0.1-0.3-0.2
					C6.4,27.1,6.3,27,6.2,27c0,0-0.1,0-0.1-0.1L6,26.8l-0.5-0.4c-0.1-0.1-0.2-0.1-0.2-0.2c-0.2-0.2-0.5-0.4-0.7-0.7
					c0,0-0.1-0.1-0.1-0.1c0,0-0.1-0.1-0.1-0.1c0,0-0.1-0.1-0.1-0.1c-0.1-0.1-0.2-0.3-0.4-0.4c-0.1-0.1-0.2-0.2-0.3-0.3
					c-0.1-0.1-0.2-0.2-0.2-0.3C3.3,24,3.1,23.8,3,23.6c-0.2-0.2-0.3-0.5-0.5-0.7c-0.1-0.1-0.1-0.2-0.1-0.3c-0.2-0.3-0.4-0.7-0.6-1.1
					c-0.1-0.3-0.3-0.6-0.4-0.9c0-0.1-0.1-0.2-0.1-0.3c0-0.1-0.1-0.2-0.1-0.3c-0.1-0.2-0.1-0.4-0.2-0.6c0-0.2-0.1-0.4-0.2-0.6
					c0-0.2-0.1-0.3-0.1-0.5c0-0.1,0-0.2-0.1-0.3c0-0.1,0-0.1,0-0.2c0-0.1,0-0.3-0.1-0.4c0-0.1,0-0.1,0-0.2c0-0.1,0-0.1,0-0.2
					c0-0.1,0-0.1,0-0.2c0-0.1,0-0.2,0-0.2c0-0.1,0-0.1,0-0.2c0-0.1,0-0.1,0-0.2c0-0.1,0-0.1,0-0.2c0,0,0,0,0,0l0-0.6
					c0-0.1,0-0.1,0-0.1c0,0,0.1-0.1,0-0.1c0,0,0-0.1,0-0.1V14c0-0.1,0-0.2,0-0.3c0-0.1,0-0.2,0-0.2c0-0.1,0-0.2,0-0.3
					c0-0.1,0-0.1,0-0.2c0-0.1,0-0.1,0-0.2c0,0,0,0,0,0c0-0.1,0-0.2,0-0.4c0-0.1,0-0.3,0.1-0.4c0-0.1,0-0.2,0-0.3
					c0-0.1,0-0.2,0.1-0.4c0-0.1,0-0.2,0.1-0.4c0-0.1,0-0.2,0.1-0.3c0-0.1,0-0.1,0-0.2c0-0.1,0-0.1,0.1-0.2C1,10.1,1,10,1.1,9.9
					c0.1-0.2,0.1-0.4,0.2-0.6C1.4,9,1.4,8.9,1.5,8.7c0.1-0.2,0.1-0.3,0.2-0.5C1.8,8,1.9,7.7,2,7.5C2.1,7.3,2.2,7.2,2.3,7
					c0.1-0.2,0.2-0.4,0.4-0.6C2.7,6.3,2.8,6.2,2.8,6C2.9,6,2.9,5.9,3,5.8c0.1-0.1,0.2-0.3,0.3-0.4C3.4,5.3,3.5,5.1,3.6,5
					c0.1-0.1,0.2-0.2,0.3-0.3C3.9,4.6,4,4.5,4,4.4c0.1-0.1,0.2-0.2,0.3-0.3c0.2-0.2,0.4-0.4,0.6-0.6C5,3.4,5.2,3.2,5.3,3.1l0.2-0.2
					c0.1-0.1,0.1-0.1,0.2-0.2c0.2-0.1,0.4-0.3,0.6-0.5C6.5,2.2,6.7,2.1,6.8,2C7,1.8,7.2,1.7,7.4,1.6C7.7,1.4,8,1.3,8.3,1.1
					C8.6,1,8.8,0.9,9.1,0.8s0.5-0.2,0.8-0.3c0.2-0.1,0.3-0.1,0.5-0.1c0.1,0,0.3-0.1,0.4-0.1c0-0.1,0.1,0,0.2-0.1c0.1,0,0.1,0,0.2,0
					c0.1,0,0.1,0,0.2,0c0.1-0.1,0.2,0,0.2-0.1c0.1,0,0.1,0,0.2,0c0.1,0,0.2,0,0.4,0c0.1,0,0.3,0,0.4,0c0.1,0,0.3,0,0.4,0h0.9
					c0.2,0,0.3,0,0.5,0c0.1,0,0.2,0,0.3,0c0.1,0,0.1,0,0.2,0c0.1,0,0.2,0,0.3,0c0.1,0,0.2,0,0.3,0h0c0.2,0,0.3,0,0.5,0h1.1
					c0.2,0,0.3,0,0.5,0c0.1,0,0.2,0,0.3,0c0.1,0,0.1,0,0.2,0c0.1,0,0.1,0,0.1,0c0.1,0,0.2,0,0.3,0c0.2,0,0.3,0.1,0.5,0.1
					c0.1,0,0.2,0,0.3,0.1c0.2,0.1,0.4,0.1,0.6,0.1c0.1,0,0.2,0.1,0.3,0.1c0.1,0,0.2,0.1,0.3,0.1c0.1,0,0.2,0.1,0.4,0.1
					C21,1,21.4,1.1,21.8,1.4c0.1,0.1,0.3,0.1,0.4,0.2c0.3,0.2,0.6,0.4,0.9,0.6c0.1,0.1,0.3,0.2,0.4,0.3c0.1,0.1,0.2,0.2,0.3,0.3
					c0.1,0,0.1,0.1,0.2,0.1c0.1,0.1,0.2,0.2,0.4,0.3c0.2,0.2,0.4,0.4,0.6,0.6c0.1,0.1,0.3,0.3,0.4,0.5c0.1,0.1,0.2,0.3,0.3,0.4
					c0.1,0.2,0.3,0.4,0.4,0.5c0.2,0.3,0.4,0.6,0.6,0.9c0,0.1,0.1,0.2,0.2,0.3c0,0.1,0.1,0.2,0.2,0.3c0.1,0.2,0.2,0.3,0.3,0.5
					c0.1,0.1,0.1,0.2,0.2,0.4c0,0.1,0.1,0.2,0.1,0.3s0.1,0.2,0.1,0.3c0.1,0.2,0.2,0.4,0.3,0.7c0.1,0.3,0.2,0.6,0.3,0.8
					c0,0.1,0.1,0.2,0.1,0.4c0.1,0.2,0.1,0.4,0.2,0.6c0,0.2,0.1,0.3,0.1,0.5c0.1,0,0,0.1,0,0.2c0,0.1,0,0.1,0,0.2
					c0,0.1,0,0.3,0.1,0.4c0,0.1,0,0.1,0,0.2c0,0.1,0,0.2,0,0.2c0,0.1,0,0.2,0,0.2c0,0.1,0,0.2,0,0.2c0,0.1,0,0.2,0,0.2
					c0,0.1,0,0.3,0,0.4c0,0.1,0,0.2,0,0.3c0.1,0.5,0,1,0,1.5c0,0.1,0,0.1,0,0.2c0,0-0.1,0.1,0,0.1c0,0.1,0,0.1,0,0.2v0.2
					c0,0.1,0,0.1,0,0.2c0,0.1,0,0.2,0,0.4c0,0.1,0,0.2,0,0.3l0,0.2c0,0.1,0,0.1,0,0.2c0,0.1,0,0.1,0,0.2c0,0.1,0,0.1,0,0.2
					c0,0.1,0,0.3-0.1,0.4c0,0.1,0,0.1,0,0.2c0,0.1,0,0.1,0,0.2c0,0.1,0,0.1,0,0.2c0,0.1-0.1,0.3-0.1,0.4l-0.1,0.4
					c0,0.1,0,0.2-0.1,0.2c0,0.1,0,0.1,0,0.2c0,0,0,0.1,0,0.2c0,0.1,0,0.1,0,0.2c0,0,0,0.1-0.1,0.2c-0.1,0.2-0.1,0.4-0.2,0.6
					c0,0.1-0.1,0.2-0.1,0.3c0,0.1-0.1,0.2-0.1,0.2c-0.1,0.2-0.1,0.3-0.2,0.5c0,0.1,0,0.1-0.1,0.2c0,0.1-0.1,0.1-0.1,0.1
					c-0.1,0.2-0.2,0.5-0.4,0.7c-0.1,0.1-0.1,0.3-0.2,0.4c-0.1,0.2-0.3,0.5-0.4,0.7c-0.2,0.2-0.3,0.4-0.5,0.7
					c-0.1,0.2-0.3,0.4-0.4,0.6s-0.3,0.4-0.5,0.6c-0.1,0.1-0.3,0.3-0.4,0.4c-0.2,0.2-0.3,0.3-0.5,0.5l-0.2,0.2
					c-0.1,0.1-0.1,0.1-0.2,0.2c-0.1,0.1-0.3,0.2-0.4,0.3c-0.2,0.2-0.5,0.4-0.7,0.5c-0.2,0.1-0.3,0.2-0.5,0.3
					c-0.3,0.2-0.6,0.3-0.9,0.5c-0.2,0.1-0.4,0.2-0.6,0.3c-0.1,0-0.3,0.1-0.4,0.2c-0.1,0-0.1,0-0.2,0.1c-0.1,0-0.2,0-0.2,0.1
					c-0.1,0-0.2,0.1-0.2,0.1c-0.1,0-0.1,0.1-0.2,0.1C19.3,29,19.2,29,19,29.1c-0.1,0-0.2,0-0.3,0.1c-0.1,0-0.1,0-0.2,0
					c-0.1,0-0.1,0-0.2,0c-0.1,0-0.1,0-0.2,0c-0.1,0-0.1,0-0.2,0c-0.1,0-0.1,0-0.2,0c-0.1,0-0.2,0-0.3,0c0,0-0.1,0-0.1,0
					C17.3,29.4,17.2,29.4,17.2,29.4z M28.2,13.5c0-0.1,0-0.2,0-0.3c0-0.1,0-0.2,0-0.3c0-0.1,0-0.2,0-0.4v0c0-0.1-0.1-0.3-0.1-0.4
					c0-0.1-0.1-0.3-0.1-0.4c0-0.1,0-0.1,0-0.2c0-0.1,0-0.2-0.1-0.2c0-0.1,0-0.2-0.1-0.2c0-0.1-0.1-0.3-0.1-0.4
					c-0.1-0.2-0.1-0.4-0.2-0.7c0-0.1-0.1-0.2-0.1-0.3c0-0.1-0.1-0.2-0.1-0.3c-0.1-0.1-0.1-0.3-0.2-0.4c0-0.1-0.1-0.1-0.1-0.2
					c0-0.1-0.1-0.2-0.1-0.4c-0.1-0.1-0.1-0.2-0.2-0.4c-0.2-0.3-0.3-0.6-0.5-1C26.1,7,26,6.8,25.9,6.6c-0.1-0.2-0.3-0.4-0.4-0.6
					c-0.1-0.1-0.1-0.2-0.2-0.3c-0.1-0.1-0.1-0.2-0.2-0.3C25,5.4,24.8,5.2,24.7,5c-0.1-0.1-0.2-0.2-0.3-0.4l-0.4-0.4
					c0,0-0.1-0.1-0.1-0.1c-0.1,0-0.1-0.1-0.2-0.2c-0.1,0-0.1-0.1-0.2-0.2c-0.1-0.1-0.2-0.2-0.3-0.2c-0.1-0.1-0.3-0.2-0.5-0.3
					c-0.2-0.1-0.3-0.2-0.5-0.3c-0.2-0.1-0.3-0.2-0.5-0.3c-0.2-0.1-0.4-0.2-0.6-0.3c-0.3-0.1-0.6-0.3-0.8-0.4c0,0,0,0,0,0
					c-0.1,0-0.2-0.1-0.4-0.1c-0.2-0.1-0.4-0.1-0.6-0.2c-0.2,0-0.4-0.1-0.6-0.1c-0.2-0.1-0.3-0.1-0.5-0.1c-0.1,0-0.1,0-0.2,0
					c-0.1,0-0.1,0-0.2,0c-0.1,0-0.1,0-0.2,0c-0.1,0-0.2,0-0.2,0c-0.1,0-0.2,0-0.3,0c-0.1,0-0.2,0-0.4,0c-0.1,0-0.2,0-0.3,0
					c-0.1,0-0.2,0-0.3,0c-0.2,0-0.4,0-0.7,0c-0.1,0-0.3,0-0.4,0h0c0,0-0.1,0-0.2,0l-0.1,0c-0.1,0-0.2,0-0.2,0c-0.1,0-0.1,0-0.2,0
					c0,0-0.1,0-0.2,0c0,0-0.1,0-0.2,0c-0.1,0-0.2,0-0.3,0.1c0,0.1-0.1,0-0.1,0c-0.1,0-0.1,0-0.2,0c-0.1,0-0.2,0.1-0.4,0.1
					c-0.2,0.1-0.4,0.1-0.5,0.2C12.2,1.9,12,2,11.8,2.1c-0.1,0.1-0.3,0.1-0.4,0.2c-0.1,0.1-0.3,0.1-0.4,0.2c-0.1,0-0.1,0.1-0.2,0.1
					c-0.1,0-0.1,0.1-0.2,0.1c-0.1,0-0.1,0.1-0.2,0.1c-0.1,0-0.1,0.1-0.2,0.1C10,3.1,9.9,3.3,9.7,3.4S9.4,3.6,9.2,3.8S8.9,4,8.8,4.2
					C8.7,4.3,8.6,4.3,8.5,4.4C8.4,4.6,8.2,4.7,8.1,4.9S7.8,5.2,7.7,5.4C7.6,5.5,7.5,5.6,7.4,5.8C7.3,5.9,7.2,6,7.1,6.1
					C7,6.3,6.9,6.5,6.7,6.6C6.7,6.8,6.5,6.9,6.5,7.1C6.4,7.2,6.3,7.3,6.3,7.4c0,0,0,0.1-0.1,0.1C6.1,7.7,6.1,7.8,6,7.9
					C5.9,8.1,5.9,8.2,5.8,8.3C5.7,8.5,5.6,8.7,5.5,8.9c0,0.1-0.1,0.2-0.1,0.3c0,0.1-0.1,0.1-0.1,0.2c0,0.1-0.1,0.1-0.1,0.2
					C5.2,9.9,5.1,10.1,5,10.3c0,0.1-0.1,0.2-0.1,0.4c0,0.1-0.1,0.3-0.1,0.4c0,0.1-0.1,0.2-0.1,0.3c0,0.1,0,0.2-0.1,0.3
					c0,0.1,0,0.1,0,0.2c0,0.1,0,0.1,0,0.2c0,0,0,0.1,0,0.1c0,0,0,0.1,0,0.1c0,0,0,0.1,0,0.1c0,0.1,0,0.2,0,0.4v0c0,0.1,0,0.1,0,0.2
					c0,0.1,0,0.1,0,0.2c0,0.1,0,0.2,0,0.3c0,0.1,0,0.2,0,0.3c0,0.1,0,0.2,0,0.3c0,0.2,0,0.5,0,0.7c0,0.2,0,0.5,0,0.7
					c0,0.2,0,0.5,0,0.7c0,0,0,0,0,0c0,0.1,0,0.1,0,0.2c0,0.1,0,0.1,0,0.2l0,0.4v0c0,0.1,0.1,0.2,0.1,0.3c0,0.1,0,0.2,0,0.2
					c0,0.1,0.1,0.3,0.1,0.4c0,0.1,0,0.1,0,0.2c0.1,0.2,0.1,0.4,0.1,0.5C5,18.9,5,19.1,5.1,19.3c0,0.2,0.1,0.4,0.2,0.5
					c0.1,0.2,0.1,0.4,0.2,0.5c0,0.1,0,0.1,0.1,0.1c0,0.1,0.1,0.2,0.1,0.3c0,0.1,0.1,0.1,0.1,0.2c0,0.1,0.1,0.1,0.1,0.2
					c0,0.1,0.1,0.2,0.1,0.2C6,21.6,6.1,21.8,6.2,22c0,0,0,0.1,0.1,0.2c0.1,0.1,0.1,0.2,0.2,0.3c0.1,0.1,0.1,0.2,0.2,0.3
					c0.2,0.3,0.4,0.5,0.5,0.8c0.1,0.2,0.3,0.4,0.5,0.6c0.1,0.2,0.3,0.3,0.4,0.5c0.3,0.3,0.6,0.6,0.9,0.9c0.1,0.1,0.1,0.1,0.2,0.2
					c0.2,0.1,0.3,0.2,0.5,0.4c0.1,0.1,0.2,0.1,0.3,0.2c0.1,0.1,0.2,0.1,0.3,0.2c0.2,0.1,0.4,0.3,0.6,0.4c0,0,0.1,0.1,0.1,0.1
					c0,0,0.1,0.1,0.1,0.1c0.1,0,0.2,0.1,0.2,0.1c0.3,0.1,0.6,0.3,0.9,0.4c0.1,0.1,0.3,0.1,0.4,0.2c0.2,0.1,0.4,0.1,0.6,0.2
					c0.1,0.1,0.2,0.1,0.4,0.1c0.1,0,0.3,0.1,0.4,0.1l0.1,0c0,0,0.1,0,0.1,0c0.1,0,0.3,0.1,0.5,0.1c0.1,0,0.2,0,0.3,0
					c0.1,0,0.1,0,0.2,0c0.1,0,0.1,0,0.2,0c0.2,0,0.5,0,0.7,0c0.1,0,0.3,0,0.4,0c0.2,0,0.3,0,0.5,0c0.1,0,0.2,0,0.3,0
					c0.1,0,0.2,0,0.3,0h0c0,0,0.1,0,0.1,0l0.1,0c0.1,0,0.2,0,0.2,0c0.1,0,0.1,0,0.2,0c0.1,0,0.2-0.1,0.3-0.1c0.2,0,0.4-0.1,0.5-0.1
					c0.2,0,0.3-0.1,0.5-0.2c0.1,0,0.1,0,0.1,0c0.1,0,0.2-0.1,0.2-0.1c0.1,0,0.2-0.1,0.3-0.1c0.1-0.1,0.2-0.1,0.4-0.2
					c0.1-0.1,0.2-0.1,0.4-0.2c0.2-0.1,0.4-0.2,0.6-0.3c0.2-0.1,0.5-0.3,0.7-0.5c0.2-0.2,0.4-0.3,0.6-0.5c0.1-0.1,0.3-0.2,0.4-0.4
					c0.1-0.1,0.2-0.2,0.3-0.3c0.2-0.2,0.3-0.3,0.5-0.5c0.1-0.1,0.2-0.2,0.3-0.4c0.1-0.1,0.1-0.2,0.2-0.2c0.1-0.2,0.3-0.3,0.4-0.5
					c0.1-0.1,0.2-0.3,0.3-0.4c0.2-0.2,0.3-0.4,0.4-0.7c0.1-0.2,0.3-0.4,0.4-0.7c0.1-0.2,0.2-0.4,0.3-0.6c0-0.1,0.1-0.1,0.1-0.2
					c0.1,0,0.1-0.1,0.1-0.2c0.1-0.1,0.1-0.3,0.2-0.4c0.1-0.1,0.1-0.2,0.1-0.4c0-0.1,0.1-0.2,0.1-0.4c0.1-0.2,0.2-0.5,0.2-0.7
					c0-0.1,0.1-0.2,0.1-0.3c0-0.1,0.1-0.2,0.1-0.4c0-0.1,0-0.2,0.1-0.3c0-0.1,0-0.2,0.1-0.3c0-0.1,0-0.1,0-0.2c0-0.1,0-0.2,0.1-0.3
					c0,0,0-0.1,0-0.1c0,0,0-0.1,0-0.1c0,0,0-0.1,0-0.1c0,0,0-0.1,0-0.1l0-0.4v0c0.1-0.1,0-0.2,0.1-0.4c0-0.1,0-0.3,0-0.4
					c0-0.1,0-0.3,0-0.4c0-0.1,0-0.3,0-0.4c0-0.2,0-0.4,0-0.6C28.2,14.1,28.2,13.8,28.2,13.5z M5.8,23.3c-0.1-0.1-0.1-0.2-0.2-0.3
					c-0.1-0.1-0.1-0.2-0.2-0.4c-0.1-0.2-0.2-0.4-0.3-0.6C5,21.9,5,21.8,4.9,21.6c0-0.1-0.1-0.1-0.1-0.2c0,0,0-0.1-0.1-0.1
					c0,0-0.1,0-0.1,0H2.9c0,0,0,0.1,0,0.1C3,21.5,3,21.7,3.1,21.8c0.1,0.2,0.2,0.4,0.3,0.6c0,0.1,0.1,0.2,0.2,0.2
					C3.7,22.9,3.9,23,4,23.2c0,0.1,0.1,0.1,0.2,0.1h1.6C5.8,23.3,5.8,23.3,5.8,23.3z M4.4,5.6C4.4,5.6,4.4,5.7,4.4,5.6
					C4.3,5.8,4.2,5.9,4.1,6C4,6.2,3.8,6.5,3.7,6.7C3.6,6.8,3.5,7,3.4,7.1C3.3,7.3,3.2,7.4,3.1,7.6c0,0,0,0,0,0h1.8
					c0,0,0.1,0,0.1-0.1c0-0.1,0.1-0.1,0.1-0.2C5.3,7.2,5.3,7,5.4,6.8c0.1-0.2,0.3-0.4,0.4-0.7C5.9,6,6,5.9,6.1,5.8
					c0-0.1,0.1-0.1,0.1-0.2L4.4,5.6z M1.5,13.7c0,0.1,0,0.1,0,0.2c0,0.1,0,0.2,0,0.3c0,0,0,0.1,0,0.1c0,0.1,0,0.2,0,0.3
					c0,0,0,0.1,0,0.1c0,0,0,0,0,0.1c0,0.2,0,0.4,0,0.5h2v-0.1c0-0.3,0-0.7,0-1c0-0.2,0-0.3,0-0.5L1.5,13.7z M1.7,17.7h2
					c0,0,0-0.1,0-0.1c-0.1-0.1,0-0.3-0.1-0.4c0,0,0-0.1,0-0.2c0,0,0-0.1,0-0.1c0-0.1,0-0.1,0-0.1c0-0.1,0-0.3,0-0.4
					c0-0.1,0-0.1-0.1-0.1H1.6c-0.1,0-0.1,0-0.1,0.1c0,0,0,0.1,0,0.1c0,0,0,0.1,0,0.1c0,0.1,0,0.1,0,0.2c0,0,0,0.1,0,0.1
					c0,0.1,0.1,0.2,0,0.3c0,0.1,0,0.1,0,0.2C1.6,17.5,1.7,17.6,1.7,17.7z M1.9,18.8c0,0.1,0,0.1,0,0.1C2,19,2,19.2,2.1,19.3
					c0,0.1,0.1,0.3,0.1,0.4c0,0.2,0.1,0.3,0.2,0.5c0,0.1,0.1,0.1,0.1,0.1h1.8c0,0,0,0,0.1,0c0-0.1-0.1-0.1-0.1-0.2
					c-0.1-0.2-0.1-0.3-0.2-0.5c-0.1-0.2-0.1-0.5-0.2-0.7c0,0,0-0.1-0.1-0.1L1.9,18.8L1.9,18.8z M3.5,12.7c0-0.1,0-0.1,0-0.2
					c0-0.1,0-0.1,0-0.2c0,0,0-0.1,0-0.1c0-0.1,0.1-0.2,0-0.3c0-0.1,0.1-0.3,0.1-0.4c0-0.1,0-0.2,0.1-0.3h-2c-0.1,0.5-0.2,1-0.3,1.5
					C2.2,12.7,2.9,12.7,3.5,12.7z M2.1,10.1h2c0-0.1,0.1-0.2,0.1-0.4c0-0.1,0.1-0.2,0.1-0.4c0-0.1,0.1-0.2,0.1-0.4
					c0.1-0.1,0.1-0.2,0.1-0.4c0-0.1-0.1,0-0.1,0H2.6c0,0.1-0.1,0.1-0.1,0.2c0,0.1,0,0.1,0,0.2C2.4,9.1,2.4,9.2,2.4,9.3
					c0,0.1-0.1,0.2-0.1,0.3c0,0.1-0.1,0.2-0.1,0.3C2.1,10,2.1,10.1,2.1,10.1z M4.9,24.4c0.1,0.1,0.2,0.2,0.2,0.3
					c0.1,0.1,0.1,0.1,0.2,0.2c0,0.1,0.1,0.1,0.2,0.2c0.1,0,0.1,0.1,0.1,0.1c0.2,0.1,0.3,0.3,0.5,0.4c0.1,0.1,0.2,0.2,0.3,0.2
					c0,0,0.1,0,0.1,0h1.4c-0.2-0.2-0.4-0.4-0.6-0.6c-0.1-0.1-0.3-0.3-0.4-0.4c-0.1-0.1-0.2-0.2-0.3-0.4c0,0-0.1-0.1-0.1-0.1H5.1
					c0,0-0.1,0-0.1,0C5,24.3,4.9,24.3,4.9,24.4z M8.4,3.1C8.4,3.1,8.4,3.1,8.4,3.1l-1.3,0c0,0,0,0-0.1,0C6.9,3.2,6.7,3.3,6.6,3.4
					c-0.1,0-0.1,0.1-0.2,0.2C6.3,3.7,6.1,3.8,5.9,4C5.8,4.1,5.7,4.2,5.6,4.3C5.5,4.4,5.4,4.4,5.4,4.5c0,0,0,0,0,0H7
					c0,0,0.1-0.1,0.1-0.2l0.2-0.2l0.1-0.2l0.2-0.2l0.2-0.2l0.2-0.2C8,3.5,8,3.5,8.1,3.4c0-0.1,0.1-0.1,0.2-0.2
					C8.3,3.2,8.3,3.1,8.4,3.1z M7.9,26.9C7.9,26.9,7.9,26.9,7.9,26.9c0.2,0.1,0.4,0.2,0.6,0.3c0.2,0.1,0.4,0.2,0.6,0.3
					s0.4,0.2,0.6,0.2s0.4,0.1,0.6,0.2s0.4,0.1,0.6,0.2c0,0,0,0,0-0.1c-0.1-0.1-0.3-0.1-0.4-0.2c-0.1-0.1-0.3-0.2-0.4-0.2
					c-0.1-0.1-0.2-0.1-0.3-0.2c-0.2-0.1-0.4-0.3-0.6-0.4c-0.1-0.1-0.2-0.1-0.3-0.1c-0.1,0-0.3,0-0.4,0C8.3,26.9,8.1,26.9,7.9,26.9z
					 M11,1.3c-0.4,0.1-0.7,0.2-1.1,0.3C9.5,1.7,9.2,1.9,8.9,2c0.3,0,0.6,0,0.9,0c0,0,0,0,0.1,0c0.1-0.1,0.3-0.2,0.5-0.3
					c0.2-0.1,0.4-0.2,0.6-0.3C10.9,1.4,11,1.4,11,1.3z"/>
				<path id="Path_7732_1_" class="st0" d="M16.2,26.1c-0.1,0-0.2,0-0.3,0c-0.1,0-0.2,0-0.3,0c-0.1,0-0.2,0-0.3,0
					c-0.2,0-0.4-0.1-0.5-0.3c-0.1-0.2-0.1-0.4,0-0.5c0.1-0.1,0.3-0.2,0.4-0.2c0.2,0,0.3,0,0.5,0c0.2,0,0.4,0,0.5,0
					c0.3,0,0.5,0.2,0.5,0.5c0,0.2-0.1,0.4-0.3,0.5C16.4,26.1,16.3,26.1,16.2,26.1z"/>
				<path id="Path_7733_1_" class="st0" d="M26,11.7c0,0.1,0,0.3-0.2,0.4c-0.1,0.1-0.2,0.1-0.3,0.1c-0.1,0-0.2,0-0.3-0.1
					c-0.1-0.1-0.2-0.1-0.2-0.2c-0.1-0.2-0.1-0.4-0.2-0.5c0-0.1-0.1-0.3-0.1-0.4c0-0.1,0-0.3,0-0.4c0-0.1,0.1-0.2,0.2-0.3
					c0.1-0.1,0.2-0.1,0.2-0.1c0.1,0,0.1,0,0.2,0.1c0.1,0,0.1,0.1,0.2,0.2c0.1,0.1,0.1,0.2,0.1,0.3c0,0.1,0,0.2,0.1,0.3
					c0,0.2,0.1,0.4,0.2,0.6C26,11.6,26,11.7,26,11.7z"/>
				<path id="Path_7734_1_" class="st0" d="M24.8,20.1c-0.1,0-0.3-0.1-0.4-0.2c-0.1-0.1-0.1-0.2-0.1-0.4c0-0.1,0-0.1,0.1-0.2
					c0.1-0.3,0.2-0.6,0.3-0.9c0.1-0.2,0.3-0.4,0.5-0.4c0.2,0,0.3,0.1,0.4,0.3c0.1,0.1,0.1,0.3,0,0.5c-0.1,0.2-0.1,0.4-0.2,0.5
					c0,0.1-0.1,0.2-0.1,0.4c0,0,0,0.1,0,0.1c-0.1,0.1-0.1,0.1-0.2,0.2C25,20.1,24.9,20.1,24.8,20.1z"/>
				<path id="Path_7735_1_" class="st0" d="M7.4,19.2c-0.1,0-0.2,0-0.3-0.1C7.1,19.1,7,19,7,18.9c-0.1-0.1-0.1-0.2-0.1-0.4
					c0-0.1-0.1-0.2-0.1-0.2c0-0.1-0.1-0.3-0.1-0.4c-0.1-0.2,0-0.4,0.2-0.6c0.1-0.1,0.2-0.1,0.2-0.1c0.1,0,0.2,0,0.3,0
					c0.2,0.1,0.3,0.2,0.3,0.4c0,0.2,0.1,0.4,0.2,0.6c0.1,0.2,0.1,0.3,0.1,0.5c0,0.1,0,0.2-0.1,0.2c-0.1,0.1-0.2,0.2-0.3,0.2
					C7.5,19.2,7.5,19.2,7.4,19.2z"/>
				<path id="Path_7736_1_" class="st0" d="M11.6,23.7c0.1,0,0.2,0,0.3,0.1c0.1,0.1,0.2,0.1,0.4,0.2c0.1,0.1,0.2,0.1,0.3,0.2
					c0,0,0,0,0.1,0c0,0,0,0,0.1,0c0.1,0.1,0.2,0.1,0.3,0.3c0,0,0,0.1,0,0.1c0,0,0,0.1,0,0.1c0,0.1-0.1,0.2-0.2,0.3
					c-0.1,0.1-0.1,0.1-0.2,0.1c-0.1,0-0.2,0-0.4-0.1c-0.2-0.1-0.5-0.3-0.7-0.4c-0.1,0-0.1-0.1-0.2-0.1c-0.2-0.1-0.2-0.3-0.2-0.5
					C11.2,23.8,11.4,23.6,11.6,23.7z"/>
				<path id="Path_7737_1_" class="st0" d="M19.3,25.6c-0.2,0-0.4-0.1-0.5-0.3c0,0,0,0,0,0c0-0.1,0-0.2,0-0.3c0-0.1,0.2-0.2,0.3-0.3
					c0.1,0,0.3-0.1,0.4-0.1c0.2-0.1,0.3-0.2,0.5-0.2c0.1,0,0.1,0,0.2-0.1c0.1,0,0.2,0,0.2,0c0.2,0.1,0.3,0.3,0.3,0.5
					c0,0.1,0,0.2,0,0.2c0,0.1-0.1,0.2-0.2,0.2c-0.2,0.1-0.4,0.2-0.5,0.2c-0.1,0-0.2,0.1-0.4,0.2C19.4,25.6,19.4,25.6,19.3,25.6z"/>
				<path id="Path_7738_1_" class="st0" d="M23.8,22.1c0,0.1,0,0.2-0.1,0.3c-0.1,0.2-0.3,0.3-0.4,0.5c-0.1,0.1-0.2,0.2-0.3,0.3
					c-0.1,0.1-0.3,0.2-0.4,0.1c-0.2,0-0.3-0.1-0.4-0.3c-0.1-0.1-0.1-0.2-0.1-0.3c0-0.1,0.1-0.2,0.1-0.3l0,0c0.1-0.2,0.3-0.3,0.4-0.5
					c0.1-0.1,0.1-0.2,0.2-0.2c0.1-0.1,0.2-0.2,0.3-0.2c0,0,0.1-0.1,0.1,0c0,0,0.1-0.1,0.1,0c0,0,0.1,0,0.1,0
					c0.1,0.1,0.2,0.2,0.2,0.3C23.8,22,23.8,22.1,23.8,22.1z"/>
				<path id="Path_7739_1_" class="st0" d="M9.4,7.8C9.2,7.8,9,7.7,8.9,7.5c-0.1-0.1-0.1-0.3,0-0.4c0,0,0-0.1,0.1-0.1l0.2-0.2
					c0.1-0.2,0.3-0.3,0.5-0.5C9.7,6.1,9.9,6,10.1,6c0.2,0,0.4,0.2,0.4,0.4c0,0.1,0,0.1,0,0.2c0,0.1-0.1,0.2-0.2,0.3L10.3,7
					C10.1,7.2,10,7.4,9.8,7.5c0,0.1-0.1,0.1-0.2,0.2C9.6,7.8,9.5,7.8,9.4,7.8z"/>
				<path id="Path_7740_1_" class="st0" d="M9.9,22.1c0,0.2-0.1,0.4-0.3,0.5c-0.1,0.1-0.3,0.1-0.5,0c-0.1,0-0.1-0.1-0.1-0.1
					c-0.1-0.1-0.2-0.2-0.3-0.4c-0.1-0.1-0.2-0.3-0.3-0.4c-0.1-0.1-0.2-0.3-0.2-0.5c0-0.2,0.2-0.4,0.4-0.4c0.1,0,0.2,0,0.2,0
					c0.1,0,0.2,0.1,0.2,0.1c0.1,0.1,0.2,0.3,0.3,0.4c0,0.1,0.1,0.1,0.1,0.2c0.1,0.1,0.1,0.1,0.2,0.2C9.8,21.9,9.9,22,9.9,22.1z"/>
				<path id="Path_7741_1_" class="st0" d="M8.3,9.9c0,0.1,0,0.2-0.1,0.3c-0.1,0.1-0.1,0.2-0.1,0.4C8,10.6,7.9,10.8,7.9,11
					c-0.1,0.2-0.2,0.3-0.4,0.3c0,0-0.1,0-0.1,0c-0.2,0-0.3-0.1-0.4-0.2c-0.1-0.1-0.1-0.3-0.1-0.5c0.1-0.2,0.2-0.5,0.2-0.7
					c0-0.1,0.1-0.2,0.1-0.3c0.1-0.1,0.2-0.3,0.4-0.3c0,0,0.1,0,0.1,0c0.1,0,0.1,0,0.2,0c0.1,0,0.1,0,0.1,0.1
					c0.1,0.1,0.1,0.2,0.2,0.3C8.3,9.8,8.3,9.8,8.3,9.9z"/>
				<path id="Path_7742_1_" class="st0" d="M22.8,7.2c0-0.3,0.2-0.5,0.5-0.5c0.1,0,0.2,0,0.3,0.1c0.1,0.1,0.2,0.2,0.3,0.4
					c0.1,0.1,0.2,0.3,0.3,0.4c0.1,0.1,0.1,0.2,0.2,0.3c0.1,0.3,0,0.6-0.3,0.7c0,0,0,0,0,0c-0.1,0-0.1,0.1-0.2,0h0
					c-0.1,0-0.2,0-0.2-0.1c-0.1-0.1-0.1-0.1-0.2-0.2c-0.1-0.2-0.2-0.3-0.3-0.5C23,7.8,23,7.7,22.9,7.6C22.8,7.5,22.8,7.4,22.8,7.2z"
					/>
				<path id="Path_7743_1_" class="st0" d="M20.2,4.2c0.1,0,0.3,0,0.4,0.1c0,0,0.1,0.1,0.2,0.1c0.2,0.1,0.4,0.2,0.6,0.4
					c0.1,0,0.1,0.1,0.2,0.2c0.1,0.2,0.1,0.3,0,0.5c-0.1,0.2-0.2,0.2-0.3,0.3c-0.1,0-0.2,0-0.3,0c-0.1-0.1-0.2-0.1-0.3-0.2
					c-0.2-0.1-0.4-0.2-0.6-0.3c-0.1-0.1-0.2-0.2-0.3-0.3c0,0,0,0,0-0.1V4.7c0-0.1,0-0.2,0.1-0.3c0,0,0.1-0.1,0.1-0.1
					C20,4.3,20.1,4.2,20.2,4.2z"/>
				<path id="Path_7744_1_" class="st0" d="M16.4,3.3c0.1,0,0.2,0,0.3,0c0.1,0,0.2,0,0.3,0c0,0,0.1,0,0.1,0c0,0,0.1,0,0.1,0
					c0,0,0.1,0,0.1,0c0.1,0,0.1,0.1,0.2,0.1c0,0,0,0,0.1,0.1c0.1,0.1,0.1,0.3,0.1,0.4c0,0,0,0,0,0.1c0,0.1-0.1,0.2-0.2,0.2
					c-0.1,0.1-0.2,0.1-0.4,0.1c0,0-0.1,0-0.1,0c-0.3,0-0.5,0-0.8,0c-0.3,0-0.5-0.2-0.5-0.5c0-0.2,0.1-0.4,0.3-0.5
					C16.2,3.3,16.3,3.3,16.4,3.3z"/>
				<path id="Path_7745_1_" class="st0" d="M25.3,15.5c0-0.1,0-0.1,0-0.2c0-0.2,0-0.5,0-0.7c0-0.1,0-0.2,0.1-0.2l0.1-0.1
					c0.1-0.1,0.3-0.2,0.4-0.1c0.1,0,0.2,0.1,0.3,0.1c0.1,0.1,0.1,0.2,0.1,0.3c0,0,0,0,0,0.1c0,0,0,0.1,0,0.1c0,0.2,0,0.5,0,0.7
					c0,0.1,0,0.3-0.1,0.4c0,0.2-0.2,0.3-0.3,0.3c-0.1,0-0.3,0-0.4,0c-0.1-0.1-0.2-0.2-0.3-0.3c0,0,0,0,0-0.1L25.3,15.5z"/>
				<path id="Path_7746_1_" class="st0" d="M12.5,5.3c-0.2,0-0.4-0.1-0.5-0.3c-0.1-0.2-0.1-0.4,0-0.5c0-0.1,0.1-0.1,0.2-0.2
					c0.1-0.1,0.3-0.1,0.4-0.2C12.7,4,12.9,4,13,3.9c0.1-0.1,0.2-0.1,0.3-0.1c0.1,0,0.2,0,0.2,0c0.1,0.1,0.3,0.2,0.3,0.3
					c0,0.1,0,0.1,0,0.2c0,0.1,0,0.2-0.1,0.3c-0.1,0.1-0.1,0.2-0.2,0.2c-0.1,0.1-0.3,0.1-0.4,0.2c-0.2,0.1-0.3,0.1-0.5,0.2
					C12.6,5.2,12.5,5.2,12.5,5.3z"/>
				<path id="Path_7747_1_" class="st0" d="M6.8,13.2c0.1,0,0.2,0,0.3,0.1c0.1,0,0.1,0.1,0.2,0.2c0.1,0.1,0.1,0.2,0,0.4
					c0,0,0,0.1,0,0.1v0.2c0,0.2,0,0.4,0,0.6c0,0.1-0.1,0.3-0.2,0.4c-0.1,0-0.2,0.1-0.3,0.1c-0.1,0-0.2,0-0.3-0.1
					c-0.1-0.1-0.2-0.2-0.2-0.4c0-0.2,0-0.4,0-0.6c0-0.1,0-0.3,0-0.4c0-0.1,0.1-0.3,0.1-0.4C6.6,13.3,6.7,13.2,6.8,13.2z"/>
			</g>
		</g>
		<g id="XMLID_3_" transform="translate(11.024 12.874)">
			<g id="Group_3344_1_">
				<path id="Path_7748_1_" class="st0" d="M13.3,3.1c-0.4,0.1-0.8,0.4-1-0.2c-0.5-1.3-0.4-1.5-1.7-2.8c-1.4-1.4-2.8-0.9-3-1.3
					c-0.2-0.3-0.3-0.6-0.3-1C9.8-3,12.8-0.5,13.3,3.1z"/>
				<path id="Path_7749_1_" class="st0" d="M11.5,3.5c-0.3,0.1-0.8,0.2-1-0.2c-0.2-0.5-0.6-1-1-1.4C9.1,1.5,8.6,1.3,8.1,1.3
					C7.7,1.2,7.6,0.4,7.6,0C9.6-0.1,11.4,1.4,11.5,3.5z"/>
				<path id="Path_7750_1_" class="st0" d="M8.9,2.5c0.4,0.2,0.6,0.6,0.5,1c0,0.4-0.4,0.6-0.7,0.6c0,0-0.1,0-0.1,0
					C8.2,3.9,8,3.5,8.1,3.1C8.1,2.7,8.4,2.4,8.9,2.5C8.8,2.5,8.9,2.5,8.9,2.5z"/>
				<path id="Path_7751_1_" class="st0" d="M7.4,1.2c0.3,0.5,0.3,1.1,0.2,1.7C7.5,3.4,7.3,3.7,7,4.1C6.7,4.4,5.3,5.8,4,5.8
					c-0.2,0-0.3,0-0.5-0.1c-0.4-0.2-0.7-0.6-0.7-1C2.8,4.3,3,3.9,3.4,3.8c0.1,0,0.1,0,0.2,0c0.3,0,0.5,0.3,0.5,0.6
					c0,0.1,0,0.3-0.1,0.4C3.9,4.8,3.8,4.9,3.7,4.9c0,0,0.1,0,0.1,0c0.2,0,0.5-0.1,0.7-0.2C5.3,4.4,6,3.7,6.3,2.8
					c0-0.2,0-0.4-0.1-0.6C6.2,2.2,6.1,2.1,6,2.1c-0.1,0-0.1,0-0.2,0c-0.3,0-0.7,0.1-1,0.2C4.5,2.3,4.3,2.4,4,2.4
					c-0.1,0-0.3,0-0.4-0.1C3.5,2.2,3.4,2.2,3.3,2.1C2.9,1.6,2.7,1.1,2.7,0.6c0-0.3,0-0.5,0.1-0.8C3-1.6,4.2-2.7,5.6-2.7
					c0.2,0,0.3,0,0.5,0.1c0.4,0.1,0.7,0.5,0.7,0.9c0.1,0.3,0,0.6-0.1,0.9C6.6-0.6,6.5-0.5,6.2-0.4c0,0-0.1,0-0.1,0
					c-0.3,0-0.6-0.4-0.6-0.7c0-0.2,0-0.4,0.1-0.5c-0.1,0-0.1,0-0.2,0c-0.3,0-0.6,0.1-0.9,0.2C4.3-1.2,4-0.8,3.8-0.4
					c-0.1,0.2-0.1,0.5,0,0.7c0.1,0.2,0.3,0.3,0.7,0.3c0.3,0,0.6,0,0.9-0.1c0.2,0,0.5-0.1,0.7-0.1h0C6.7,0.5,7.2,0.8,7.4,1.2z"/>
				<path id="Path_7752_1_" class="st0" d="M2.1-2.3c0.6,0.8,0.8,1.9,0.4,2.8C1.9,1.9,0.3,3.6,0.3,3.8c0,0.3,0.1,0.5,0.2,0.8
					c0.3,0.5,0.4,1,0.4,1.5C0.8,6.4,0.7,6.5,0.6,6.4c-0.9,0-1.6-4.2-1.8-4.5c-0.4,0.1-1-0.3-0.4-1.3C-1.4,0.3,1-3.3,2.1-2.3z
					 M1.3,0.3c0.1-0.6,0-1.3-0.5-1.1C0.4-0.4,0,0.1-0.4,0.6c-0.2,0.2-0.1,0.7,0,0.9C-0.3,1.9-0.2,2.1,0,2.7C0.6,2,1.1,1.2,1.3,0.3
					L1.3,0.3z"/>
				<path id="Path_7753_1_" class="st0" d="M2.4,5.1c0.3,0.2,0.4,0.5,0.3,0.8C2.6,6.2,2.3,6.4,2.1,6.3c0,0-0.1,0-0.1,0
					C1.7,6.1,1.6,5.7,1.7,5.4C1.8,5.2,2,5,2.4,5.1C2.3,5.1,2.4,5.1,2.4,5.1z"/>
			</g>
		</g>
	</g>
</g>
</svg>
