<svg xmlns="http://www.w3.org/2000/svg" xmlns:xlink="http://www.w3.org/1999/xlink" viewBox="0 0 30.2 24.6">
  <defs>
    <style>
      .cls-1 {
        clip-path: url(#clip-path);
      }

      .cls-2 {
        clip-path: url(#clip-path-2);
      }

      .cls-3 {
        clip-path: url(#clip-path-3);
      }

      .cls-4 {
        clip-path: url(#clip-path-4);
      }

      .cls-5 {
        clip-path: url(#clip-path-5);
      }

      .cls-6 {
        fill: #643f90;
      }
    </style>
    <clipPath id="clip-path">
      <rect id="Rectangle_218" data-name="Rectangle 218" width="30.2" height="24.6" transform="translate(159 750)"/>
    </clipPath>
    <clipPath id="clip-path-2">
      <rect id="Rectangle_217" data-name="Rectangle 217" width="1920" height="1080"/>
    </clipPath>
    <clipPath id="clip-path-3">
      <rect id="Rectangle_216" data-name="Rectangle 216" width="31" height="25" transform="translate(159 750)"/>
    </clipPath>
    <clipPath id="clip-path-4">
      <path id="Path_770" data-name="Path 770" d="M188.4,750.5a13.157,13.157,0,0,1-3.9,1.5,6.11,6.11,0,0,0-4.5-2,6.231,6.231,0,0,0-6.2,6.2,5.9,5.9,0,0,0,.2,1.4,17.815,17.815,0,0,1-12.8-6.5,6.5,6.5,0,0,0-.8,3.1,6.137,6.137,0,0,0,2.8,5.2,5.376,5.376,0,0,1-2.8-.8v.1a6.215,6.215,0,0,0,5,6.1,8.755,8.755,0,0,1-1.6.2,4.87,4.87,0,0,1-1.2-.1,6.123,6.123,0,0,0,5.8,4.3,12.222,12.222,0,0,1-7.7,2.7,7.57,7.57,0,0,1-1.5-.1,17.1,17.1,0,0,0,9.5,2.8c11.4,0,17.6-9.5,17.6-17.7v-.8a13.431,13.431,0,0,0,3.1-3.2,13.641,13.641,0,0,1-3.6,1,7.416,7.416,0,0,0,2.6-3.4"/>
    </clipPath>
    <clipPath id="clip-path-5">
      <rect id="Rectangle_215" data-name="Rectangle 215" width="31" height="25" transform="translate(5 5)"/>
    </clipPath>
  </defs>
  <g id="Group_736" data-name="Group 736" transform="translate(-159 -750)">
    <g id="Group_735" data-name="Group 735" class="cls-1">
      <g id="Group_734" data-name="Group 734" class="cls-2">
        <g id="Group_733" data-name="Group 733">
          <g id="Group_732" data-name="Group 732" class="cls-3">
            <g id="Group_731" data-name="Group 731" class="cls-4">
              <g id="Group_730" data-name="Group 730" class="cls-5" transform="translate(154 745)">
                <rect id="Rectangle_214" data-name="Rectangle 214" class="cls-6" width="40.2" height="34.6"/>
              </g>
            </g>
          </g>
        </g>
      </g>
    </g>
  </g>
</svg>
