<svg xmlns="http://www.w3.org/2000/svg" xmlns:xlink="http://www.w3.org/1999/xlink" viewBox="0 0 30 25"><defs><style>.a{clip-path:url(#a);}.b{clip-path:url(#b);}.c{clip-path:url(#d);}.d{clip-path:url(#e);}.e{fill:#fff;}</style><clipPath id="a"><rect width="30" height="25" transform="translate(870 689)"/></clipPath><clipPath id="b"><rect width="1920" height="1080" transform="translate(744)"/></clipPath><clipPath id="d"><path d="M899.2,689.5a13.157,13.157,0,0,1-3.9,1.5,6.11,6.11,0,0,0-4.5-2,6.253,6.253,0,0,0-6.2,6.3,5.9,5.9,0,0,0,.2,1.4,17.707,17.707,0,0,1-12.7-6.6,6.634,6.634,0,0,0,1.9,8.5,5.376,5.376,0,0,1-2.8-.8v.1a6.256,6.256,0,0,0,4.9,6.2,8.754,8.754,0,0,1-1.6.2,4.87,4.87,0,0,1-1.2-.1,6.324,6.324,0,0,0,5.7,4.4,12.152,12.152,0,0,1-7.6,2.7,7.57,7.57,0,0,1-1.5-.1,17.017,17.017,0,0,0,9.4,2.8c11.3,0,17.5-9.6,17.5-18v-.8a13.963,13.963,0,0,0,3.1-3.3,14.039,14.039,0,0,1-3.5,1,6.286,6.286,0,0,0,2.8-3.4"/></clipPath><clipPath id="e"><rect width="30" height="25" transform="translate(5 5)"/></clipPath></defs><g transform="translate(-870 -689)"><g class="a"><g class="b"><g class="a"><g class="c"><g class="d" transform="translate(865 684)"><rect class="e" width="40" height="35"/></g></g></g></g></g></g></svg>