<svg xmlns="http://www.w3.org/2000/svg" viewBox="0 0 35.452 35.842"><defs><style>.a{fill:#fff;}</style></defs><path class="a" d="M17.991,0A17.465,17.465,0,0,0,.522,17.469a20.129,20.129,0,0,0,2.537,9.07L0,35.842l9.568-3.059a17.734,17.734,0,0,0,8.415,2.156A17.469,17.469,0,0,0,17.991,0Zm0,32.144a16,16,0,0,1-8.084-2.429l-5.513,1.8,1.791-5.339a16.663,16.663,0,0,1-2.86-8.705A14.675,14.675,0,1,1,17.991,32.144Z"/><path class="a" d="M117.689,115.7a2.051,2.051,0,0,1,.721-.3h1.376a.783.783,0,0,1,.539.448c.166.381,1.327,3.109,1.418,3.325a1.144,1.144,0,0,1-.05,1.194c-.365.464-1.119,1.335-1.119,1.335a.536.536,0,0,0-.041.7,13.8,13.8,0,0,0,2.363,2.91,11.29,11.29,0,0,0,3.383,2.1c.73.24.887-.083,1.169-.439s1.144-1.459,1.144-1.459a.681.681,0,0,1,.887-.166c.589.265,3.449,1.658,3.449,1.658a.457.457,0,0,1,.365.448,3.141,3.141,0,0,1-.779,2.67,5.2,5.2,0,0,1-4.286,1.343c-1.045-.29-4.5-1.194-6.749-3.3a22.326,22.326,0,0,1-4.825-5.945,5.747,5.747,0,0,1-.663-3.051C116.031,118.708,116.28,116.6,117.689,115.7Z" transform="translate(-106.356 -105.832)"/></svg>