<svg width="1500" height="1500" xmlns="http://www.w3.org/2000/svg" preserveAspectRatio="xMidYMid meet">

 <g>
  <title>background</title>
  <rect fill="none" id="canvas_background" height="1502" width="1502" y="-1" x="-1"/>
 </g>
 <g>
  <title>Layer 1</title>
  <path transform="rotate(45 758.2160644531252,767.231750488281) " fill="#bf0000" id="svg_1" d="m1462.216064,671.231815l0,192c0,26.667 -9.333,49.333 -28,68s-41.333,28 -68,28l-416,0l0,416c0,26.667 -9.333,49.333 -28,68s-41.333,28 -68,28l-192,0c-26.667,0 -49.333,-9.333 -68,-28s-28,-41.333 -28,-68l0,-416l-416,0c-26.667,0 -49.333,-9.333 -68,-28s-28,-41.333 -28,-68l0,-192c0,-26.667 9.333,-49.333 28,-68s41.333,-28 68,-28l416,0l0,-416c0,-26.667 9.333,-49.333 28,-68s41.333,-28 68,-28l192,0c26.667,0 49.333,9.333 68,28s28,41.333 28,68l0,416l416,0c26.667,0 49.333,9.333 68,28s28,41.333 28,68z"/>
 </g>
</svg>