<svg width="58" height="58" xmlns="http://www.w3.org/2000/svg">
 <title/>
 <desc/>

 <g>
  <title>background</title>
  <rect fill="none" id="canvas_background" height="402" width="582" y="-1" x="-1"/>
 </g>
 <g>
  <title>Layer 1</title>
  <path id="Shape" fill="#f6ab27" d="m30.671606,1.229644l7.4437,15.80374c0.2736,0.59697 0.8269,1.01818 1.47516,1.123l16.64461,2.53425c0.75246,0.14591 1.36371,0.69383 1.59072,1.42592c0.22701,0.73209 0.03301,1.5297 -0.50489,2.07574l-12.04415,12.30145c-0.46506,0.48224 -0.6741,1.15633 -0.56347,1.81708l2.84324,17.37c0.15511,0.7467 -0.13243,1.51611 -0.73924,1.97806c-0.60682,0.46196 -1.42501,0.53432 -2.10348,0.18605l-14.8874,-8.201c-0.56714,-0.31441 -1.25626,-0.31441 -1.8234,0l-14.8874,8.201c-0.67847,0.34827 -1.49666,0.27591 -2.10348,-0.18605c-0.60681,-0.46195 -0.89435,-1.23136 -0.73924,-1.97806l2.84324,-17.37c0.11063,-0.66075 -0.09841,-1.33484 -0.56347,-1.81708l-12.04415,-12.30145c-0.53787,-0.54604 -0.73186,-1.34364 -0.50485,-2.07571c0.22701,-0.73207 0.83824,-1.27998 1.59068,-1.4259l16.64461,-2.53429c0.64826,-0.10482 1.20156,-0.52603 1.47516,-1.123l7.4437,-15.80375c0.30744,-0.69563 0.99636,-1.14436 1.7569,-1.14436c0.76054,0 1.44946,0.44873 1.7569,1.14436z"/>
  <path id="Shape" fill="#f6ab27" d="m17.14844,38.87158c0.31488,-1.9175 -0.29903,-3.87064 -1.6543,-5.26318l-9.42383,-9.62549l12.85645,-1.957c1.96473,-0.30484 3.64849,-1.5684 4.49024,-3.36966l5.583,-11.854l5.581,11.85058c0.84167,1.80274 2.52623,3.0676 4.49219,3.373l12.85645,1.957l-9.42578,9.62744c-1.35452,1.39316 -1.96765,3.34639 -1.6523,5.26373l2.18457,13.34766l-11.19433,-6.16648c-1.76833,-0.97623 -3.91394,-0.97661 -5.68262,-0.001l-11.19531,6.1675l2.18457,-13.3501z"/>
 </g>
</svg>